<svg width="375" height="812" viewBox="0 0 375 812" fill="none" xmlns="http://www.w3.org/2000/svg">
<path fill-rule="evenodd" clip-rule="evenodd" d="M375 0L0 0L0 812H375V0ZM343.5 100C349.299 100 354 95.299 354 89.5C354 83.701 349.299 79 343.5 79C337.701 79 333 83.701 333 89.5C333 95.299 337.701 100 343.5 100ZM324 89.5C324 95.299 319.299 100 313.5 100C307.701 100 303 95.299 303 89.5C303 83.701 307.701 79 313.5 79C319.299 79 324 83.701 324 89.5ZM283.5 100C289.299 100 294 95.299 294 89.5C294 83.701 289.299 79 283.5 79C277.701 79 273 83.701 273 89.5C273 95.299 277.701 100 283.5 100Z" fill="#6194F8"/>
</svg>
