<svg width="24" height="24" viewBox="0 0 24 24" fill="none" xmlns="http://www.w3.org/2000/svg">
<path d="M12.4827 14.8863C14.1764 14.8863 15.5493 13.5133 15.5493 11.8196C15.5493 10.1259 14.1764 8.75293 12.4827 8.75293C10.789 8.75293 9.41602 10.1259 9.41602 11.8196C9.41602 13.5133 10.789 14.8863 12.4827 14.8863Z" fill="white"/>
<path d="M9.60775 2.23633L7.854 4.15299H4.81608C3.76191 4.15299 2.89941 5.01549 2.89941 6.06966V17.5697C2.89941 18.6238 3.76191 19.4863 4.81608 19.4863H20.1494C21.2036 19.4863 22.0661 18.6238 22.0661 17.5697V6.06966C22.0661 5.01549 21.2036 4.15299 20.1494 4.15299H17.1115L15.3577 2.23633H9.60775ZM12.4827 16.6113C9.83775 16.6113 7.69108 14.4647 7.69108 11.8197C7.69108 9.17466 9.83775 7.02799 12.4827 7.02799C15.1277 7.02799 17.2744 9.17466 17.2744 11.8197C17.2744 14.4647 15.1277 16.6113 12.4827 16.6113Z" fill="white"/>
</svg>
