<svg width="25" height="24" viewBox="0 0 25 24" fill="none" xmlns="http://www.w3.org/2000/svg">
<g clip-path="url(#clip0)">
<path d="M20.5873 5.11035H4.77337C3.68617 5.11035 2.80651 5.99989 2.80651 7.0871L2.79663 16.9708C2.79663 18.058 3.68617 18.9476 4.77337 18.9476H20.5873C21.6745 18.9476 22.5641 18.058 22.5641 16.9708V7.0871C22.5641 5.99989 21.6745 5.11035 20.5873 5.11035ZM11.692 8.07547H13.6687V10.0522H11.692V8.07547ZM11.692 11.0406H13.6687V13.0173H11.692V11.0406ZM8.72686 8.07547H10.7036V10.0522H8.72686V8.07547ZM8.72686 11.0406H10.7036V13.0173H8.72686V11.0406ZM7.73849 13.0173H5.76175V11.0406H7.73849V13.0173ZM7.73849 10.0522H5.76175V8.07547H7.73849V10.0522ZM16.6338 16.9708H8.72686V14.9941H16.6338V16.9708ZM16.6338 13.0173H14.6571V11.0406H16.6338V13.0173ZM16.6338 10.0522H14.6571V8.07547H16.6338V10.0522ZM19.599 13.0173H17.6222V11.0406H19.599V13.0173ZM19.599 10.0522H17.6222V8.07547H19.599V10.0522Z" fill="black"/>
</g>
<defs>
<clipPath id="clip0">
<rect width="23.7209" height="23.7209" fill="white" transform="translate(0.819824 0.168457)"/>
</clipPath>
</defs>
</svg>
