<svg width="24" height="24" viewBox="0 0 24 24" fill="none" xmlns="http://www.w3.org/2000/svg">
<path d="M11.9943 14.0056C13.635 14.0056 14.9495 12.6812 14.9495 11.0405L14.9594 5.11026C14.9594 3.46956 13.635 2.14514 11.9943 2.14514C10.3536 2.14514 9.02917 3.46956 9.02917 5.11026V11.0405C9.02917 12.6812 10.3536 14.0056 11.9943 14.0056ZM17.2327 11.0405C17.2327 14.0056 14.7222 16.0812 11.9943 16.0812C9.26638 16.0812 6.75592 14.0056 6.75592 11.0405H5.07568C5.07568 14.4108 7.76406 17.198 11.0059 17.6823V20.9242H12.9827V17.6823C16.2245 17.2079 18.9129 14.4207 18.9129 11.0405H17.2327Z" fill="black"/>
</svg>
