<svg width="360" height="640" viewBox="0 0 360 640" fill="none" xmlns="http://www.w3.org/2000/svg">
<path fill-rule="evenodd" clip-rule="evenodd" d="M360 0L0 0L0 640H360V0ZM326.5 100.266C332.299 100.266 337 95.565 337 89.766C337 83.967 332.299 79.266 326.5 79.266C320.701 79.266 316 83.967 316 89.766C316 95.565 320.701 100.266 326.5 100.266ZM309 89.766C309 95.565 304.299 100.266 298.5 100.266C292.701 100.266 288 95.565 288 89.766C288 83.967 292.701 79.266 298.5 79.266C304.299 79.266 309 83.967 309 89.766ZM270.5 100.266C276.299 100.266 281 95.565 281 89.766C281 83.967 276.299 79.266 270.5 79.266C264.701 79.266 260 83.967 260 89.766C260 95.565 264.701 100.266 270.5 100.266Z" fill="#7CDE7A"/>
</svg>
