<svg width="360" height="640" viewBox="0 0 360 640" fill="none" xmlns="http://www.w3.org/2000/svg">
<path fill-rule="evenodd" clip-rule="evenodd" d="M0 0L360 0V640H0L0 0ZM337 89.766C337 95.565 332.299 100.266 326.5 100.266C320.701 100.266 316 95.565 316 89.766C316 83.967 320.701 79.266 326.5 79.266C332.299 79.266 337 83.967 337 89.766ZM298.5 100.266C304.299 100.266 309 95.565 309 89.766C309 83.967 304.299 79.266 298.5 79.266C292.701 79.266 288 83.967 288 89.766C288 95.565 292.701 100.266 298.5 100.266Z" fill="#FFDF6B"/>
</svg>
